name Walk9.mot
datacolumns 19
datarows 27
range 2.59500000 2.62100000
endheader

                time	   L_ground_force_vx	   L_ground_force_vy	   L_ground_force_vz	   L_ground_force_px	   L_ground_force_py	   L_ground_force_pz	   R_ground_force_vx	   R_ground_force_vy	   R_ground_force_vz	   R_ground_force_px	   R_ground_force_py	   R_ground_force_pz	   L_ground_torque_x	   L_ground_torque_y	   L_ground_torque_z	   R_ground_torque_x	   R_ground_torque_y	   R_ground_torque_z	
          2.59500000	          0.00000000	          0.00000000	          0.00000000	         -0.00000000	          0.00000000	         -0.00000000	         15.11459529	        128.12261809	          3.67402977	          0.39153310	          0.00000000	          0.11154167	          0.00000000	          0.00000000	          0.00000000	          0.00000000	         -4.50086586	          0.00000000	
          2.59600000	          0.00000000	          0.00000000	          0.00000000	         -0.00000000	          0.00000000	         -0.00000000	         13.93184236	        122.12383210	          3.63900755	          0.38993289	          0.00000000	          0.11042961	          0.00000000	          0.00000000	          0.00000000	          0.00000000	         -4.28956087	          0.00000000	
          2.59700000	          0.00000000	          0.00000000	          0.00000000	         -0.00000000	          0.00000000	         -0.00000000	         12.77699167	        116.29165428	          3.59716380	          0.38812470	          0.00000000	          0.10926974	          0.00000000	          0.00000000	          0.00000000	          0.00000000	         -4.08130551	          0.00000000	
          2.59800000	          0.00000000	          0.00000000	          0.00000000	         -0.00000000	          0.00000000	         -0.00000000	         11.65162327	        110.62644557	          3.54900606	          0.38609911	          0.00000000	          0.10806103	          0.00000000	          0.00000000	          0.00000000	          0.00000000	         -3.87637616	          0.00000000	
          2.59900000	          0.00000000	          0.00000000	          0.00000000	         -0.00000000	          0.00000000	         -0.00000000	         10.55725257	        105.12821387	          3.49502374	          0.38384687	          0.00000000	          0.10680253	          0.00000000	          0.00000000	          0.00000000	          0.00000000	         -3.67504036	          0.00000000	
          2.60000000	          0.00000000	          0.00000000	          0.00000000	         -0.00000000	          0.00000000	         -0.00000000	          9.49532087	         99.79662292	          3.43568787	          0.38135893	          0.00000000	          0.10549332	          0.00000000	          0.00000000	          0.00000000	          0.00000000	         -3.47755539	          0.00000000	
          2.60100000	          0.00000000	          0.00000000	          0.00000000	         -0.00000000	          0.00000000	         -0.00000000	          8.46718643	         94.63100532	          3.37145059	          0.37862649	          0.00000000	          0.10413251	          0.00000000	          0.00000000	          0.00000000	          0.00000000	         -3.28416698	          0.00000000	
          2.60200000	          0.00000000	          0.00000000	          0.00000000	         -0.00000000	          0.00000000	         -0.00000000	          7.47411627	         89.63037904	          3.30274447	          0.37564110	          0.00000000	          0.10271932	          0.00000000	          0.00000000	          0.00000000	          0.00000000	         -3.09510809	          0.00000000	
          2.60300000	          0.00000000	          0.00000000	          0.00000000	         -0.00000000	          0.00000000	         -0.00000000	          6.51727881	         84.79346589	          3.22998197	          0.37239469	          0.00000000	          0.10125301	          0.00000000	          0.00000000	          0.00000000	          0.00000000	         -2.91059780	          0.00000000	
          2.60400000	          0.00000000	          0.00000000	          0.00000000	         -0.00000000	          0.00000000	         -0.00000000	          5.59773748	         80.11871111	          3.15355525	          0.36887972	          0.00000000	          0.09973292	          0.00000000	          0.00000000	          0.00000000	          0.00000000	         -2.73084043	          0.00000000	
          2.60500000	          0.00000000	          0.00000000	          0.00000000	         -0.00000000	          0.00000000	         -0.00000000	          4.71644521	         75.60430338	          3.07383684	          0.36508920	          0.00000000	          0.09815852	          0.00000000	          0.00000000	          0.00000000	          0.00000000	         -2.55602478	          0.00000000	
          2.60600000	          0.00000000	          0.00000000	          0.00000000	         -0.00000000	          0.00000000	         -0.00000000	          3.87423964	         71.24819605	          2.99118131	          0.36101684	          0.00000000	          0.09652934	          0.00000000	          0.00000000	          0.00000000	          0.00000000	         -2.38632348	          0.00000000	
          2.60700000	          0.00000000	          0.00000000	          0.00000000	         -0.00000000	          0.00000000	         -0.00000000	          3.07183897	         67.04812997	          2.90592796	          0.35665711	          0.00000000	          0.09484507	          0.00000000	          0.00000000	          0.00000000	          0.00000000	         -2.22189232	          0.00000000	
          2.60800000	          0.00000000	          0.00000000	          0.00000000	         -0.00000000	          0.00000000	         -0.00000000	          2.30983788	         63.00165823	          2.81840397	          0.35200533	          0.00000000	          0.09310554	          0.00000000	          0.00000000	          0.00000000	          0.00000000	         -2.06286956	          0.00000000	
          2.60900000	          0.00000000	          0.00000000	          0.00000000	         -0.00000000	          0.00000000	         -0.00000000	          1.58870351	         59.10617202	          2.72892748	          0.34705778	          0.00000000	          0.09131076	          0.00000000	          0.00000000	          0.00000000	          0.00000000	         -1.90937534	          0.00000000	
          2.61000000	          0.00000000	          0.00000000	          0.00000000	         -0.00000000	          0.00000000	         -0.00000000	          0.90877114	         55.35892644	          2.63781008	          0.34181180	          0.00000000	          0.08946094	          0.00000000	          0.00000000	          0.00000000	          0.00000000	         -1.76151100	          0.00000000	
          2.61100000	          0.00000000	          0.00000000	          0.00000000	         -0.00000000	          0.00000000	         -0.00000000	          0.27023981	         51.75706591	          2.54535846	          0.33626585	          0.00000000	          0.08755654	          0.00000000	          0.00000000	          0.00000000	          0.00000000	         -1.61935839	          0.00000000	
          2.61200000	          0.00000000	          0.00000000	          0.00000000	         -0.00000000	          0.00000000	         -0.00000000	         -0.32683201	         48.29764892	          2.45187526	          0.33041968	          0.00000000	          0.08559823	          0.00000000	          0.00000000	          0.00000000	          0.00000000	         -1.48297928	          0.00000000	
          2.61300000	          0.00000000	          0.00000000	          0.00000000	         -0.00000000	          0.00000000	         -0.00000000	         -0.88253041	         44.97767271	          2.35765915	          0.32427437	          0.00000000	          0.08358697	          0.00000000	          0.00000000	          0.00000000	          0.00000000	         -1.35241469	          0.00000000	
          2.61400000	          0.00000000	          0.00000000	          0.00000000	         -0.00000000	          0.00000000	         -0.00000000	         -1.39708929	         41.79409768	          2.26300437	          0.31783251	          0.00000000	          0.08152400	          0.00000000	          0.00000000	          0.00000000	          0.00000000	         -1.22768444	          0.00000000	
          2.61500000	          0.00000000	          0.00000000	          0.00000000	         -0.00000000	          0.00000000	         -0.00000000	         -1.87089255	         38.74387088	          2.16819967	          0.31109827	          0.00000000	          0.07941091	          0.00000000	          0.00000000	          0.00000000	          0.00000000	         -1.10878686	          0.00000000	
          2.61600000	          0.00000000	          0.00000000	          0.00000000	         -0.00000000	          0.00000000	         -0.00000000	         -2.30447506	         35.82394764	          2.07352691	          0.30407756	          0.00000000	          0.07724963	          0.00000000	          0.00000000	          0.00000000	          0.00000000	         -0.99569891	          0.00000000	
          2.61700000	          0.00000000	          0.00000000	          0.00000000	         -0.00000000	          0.00000000	         -0.00000000	         -2.69852219	         33.03131057	          1.97925930	          0.29677815	          0.00000000	          0.07504250	          0.00000000	          0.00000000	          0.00000000	          0.00000000	         -0.88837653	          0.00000000	
          2.61800000	          0.00000000	          0.00000000	          0.00000000	         -0.00000000	          0.00000000	         -0.00000000	         -3.05386803	         30.36298581	          1.88565966	          0.28920981	          0.00000000	          0.07279226	          0.00000000	          0.00000000	          0.00000000	          0.00000000	         -0.78675559	          0.00000000	
          2.61900000	          0.00000000	          0.00000000	          0.00000000	         -0.00000000	          0.00000000	         -0.00000000	         -3.37149262	         27.81605699	          1.79297881	          0.28138449	          0.00000000	          0.07050212	          0.00000000	          0.00000000	          0.00000000	          0.00000000	         -0.69075310	          0.00000000	
          2.62000000	          0.00000000	          0.00000000	          0.00000000	         -0.00000000	          0.00000000	         -0.00000000	         -3.65251816	         25.38767756	          1.70145420	          0.27331651	          0.00000000	          0.06817570	          0.00000000	          0.00000000	          0.00000000	          0.00000000	         -0.60026888	          0.00000000	
          2.62100000	          0.00000000	          0.00000000	          0.00000000	         -0.00000000	          0.00000000	         -0.00000000	         -3.89820481	         23.07508169	          1.61130874	          0.26502273	          0.00000000	          0.06581715	          0.00000000	          0.00000000	          0.00000000	          0.00000000	         -0.51518733	          0.00000000	
